<svg xmlns="http://www.w3.org/2000/svg" viewBox="-0.0293 0.9059 0.2416 0.2484" preserveAspectRatio="xMidYMid meet" role="img" aria-label="quietly">
<title>quietly logotip</title><g id="content" transform="translate(-0.03125,1.1875) scale(1,-1) scale(0.0017361) " xml:space="preserve" stroke="black" stroke-linecap="butt" stroke-linejoin="miter" stroke-miterlimit="10.433" stroke-dasharray="none" stroke-dashoffset="0" stroke-opacity="1" fill="none" fill-rule="evenodd" fill-opacity="1" font-style="normal" font-variant="normal" font-weight="normal" font-stretch="normal" font-size-adjust="none" letter-spacing="normal" word-spacing="normal" text-anchor="start">
<path d="M58.137,138.75 L58.043,138.75 L57.95,138.75 L57.858,138.76 L57.767,138.77 L57.678,138.78 L57.589,138.79 L57.502,138.8 L57.415,138.82 L57.33,138.84 L57.245,138.86 L57.162,138.88 L57.079,138.9 L56.998,138.93 L56.917,138.96 L56.838,138.99 L56.759,139.02 L56.682,139.06 L56.605,139.09 L56.529,139.13 L56.454,139.17 L56.38,139.22 L56.307,139.26 L56.235,139.31 L56.164,139.36 L56.094,139.42 L56.024,139.47 L55.956,139.53 L55.888,139.59 L55.821,139.65 L55.755,139.71 L55.689,139.78 L55.625,139.84 C54.938,140.58,54.605,141.42,54.605,142.41 C54.605,143.4,54.938,144.24,55.625,144.97 C56.309,145.71,57.129,146.07,58.137,146.07 C59.145,146.07,59.969,145.71,60.652,144.97 C61.34,144.24,61.672,143.4,61.672,142.41 C61.672,141.42,61.34,140.58,60.652,139.84 C59.969,139.11,59.145,138.75,58.137,138.75 Z " stroke="#333333" stroke-width="0" fill="#333333" fill-rule="nonzero" />
<path d="M61.672,146.74 L61.573,146.84 L61.474,146.93 L61.372,147.03 L61.27,147.12 L61.166,147.2 L61.061,147.29 L60.954,147.37 L60.846,147.44 L60.737,147.52 L60.626,147.59 L60.514,147.66 L60.401,147.72 L60.287,147.78 L60.171,147.84 L60.054,147.9 L59.935,147.95 L59.815,148 L59.694,148.04 L59.572,148.09 L59.448,148.13 L59.323,148.16 L59.197,148.2 L59.07,148.23 L58.941,148.25 L58.811,148.28 L58.68,148.3 L58.548,148.32 L58.414,148.33 L58.279,148.34 L58.143,148.35 L58.006,148.35 L57.867,148.35 C56.293,148.35,54.949,147.74,53.875,146.54 C52.84,145.38,52.312,143.98,52.312,142.41 C52.312,140.83,52.84,139.44,53.875,138.28 C54.949,137.07,56.293,136.46,57.867,136.46 C59.352,136.46,60.629,137,61.672,138.08 V130.55 H63.961 V148.11 H61.672 Z " stroke="#333333" stroke-width="0" fill="#333333" fill-rule="nonzero" />
<path d="M74.574,143.29 L74.571,143.03 L74.562,142.77 L74.546,142.51 L74.524,142.27 L74.497,142.03 L74.462,141.8 L74.422,141.58 L74.375,141.36 L74.323,141.16 L74.264,140.96 L74.199,140.76 L74.128,140.58 L74.05,140.4 L73.967,140.23 L73.877,140.07 L73.781,139.92 C73.273,139.15,72.418,138.78,71.164,138.78 C70.52,138.78,70.078,138.98,69.812,139.4 C69.523,139.85,69.379,140.41,69.379,141.05 V148.11 H67.086 V141.05 C67.086,139.73,67.453,138.63,68.176,137.79 C68.91,136.92,69.941,136.48,71.238,136.48 C72.621,136.48,73.738,136.98,74.574,137.96 V136.71 H76.863 V148.11 H74.574 Z " stroke="#333333" stroke-width="0" fill="#333333" fill-rule="nonzero" />
<polygon points="79.742,136.71 82.031,136.71 82.031,148.11 79.742,148.11 " stroke="#333333" stroke-width="0" fill="#333333" fill-rule="nonzero" />
<path d="M80.875,152.17 L80.84,152.17 L80.805,152.17 L80.77,152.17 L80.735,152.17 L80.701,152.16 L80.667,152.16 L80.634,152.15 L80.6,152.15 L80.568,152.14 L80.535,152.13 L80.503,152.12 L80.471,152.12 L80.439,152.11 L80.408,152.1 L80.376,152.08 L80.346,152.07 L80.315,152.06 L80.285,152.05 L80.255,152.03 L80.226,152.02 L80.197,152 L80.168,151.98 L80.14,151.96 L80.111,151.95 L80.084,151.93 L80.056,151.91 L80.029,151.89 L80.002,151.86 L79.976,151.84 L79.95,151.82 L79.924,151.79 L79.898,151.77 C79.629,151.5,79.496,151.17,79.496,150.79 C79.496,150.41,79.629,150.09,79.898,149.82 C80.168,149.55,80.496,149.41,80.875,149.41 C81.254,149.41,81.582,149.55,81.852,149.82 C82.117,150.09,82.254,150.41,82.254,150.79 C82.254,151.17,82.117,151.5,81.852,151.77 C81.582,152.04,81.254,152.17,80.875,152.17 Z " stroke="#333333" stroke-width="0" fill="#333333" fill-rule="nonzero" />
<path d="M93.941,143.5 H86.992 C87.086,143.8,87.215,144.08,87.379,144.34 C88.145,145.53,89.152,146.11,90.465,146.11 C91.316,146.11,92.078,145.84,92.734,145.29 C93.32,144.81,93.723,144.21,93.941,143.5 Z " stroke="#333333" stroke-width="0" fill="#333333" fill-rule="nonzero" />
<path d="M90.465,148.41 L90.313,148.4 L90.162,148.4 L90.012,148.39 L89.864,148.38 L89.717,148.36 L89.571,148.34 L89.427,148.32 L89.284,148.3 L89.142,148.27 L89.002,148.23 L88.863,148.2 L88.725,148.16 L88.589,148.12 L88.454,148.07 L88.32,148.02 L88.188,147.97 L88.057,147.91 L87.928,147.85 L87.8,147.79 L87.673,147.72 L87.548,147.65 L87.424,147.58 L87.301,147.5 L87.18,147.42 L87.061,147.34 L86.943,147.25 L86.826,147.16 L86.711,147.07 L86.598,146.97 L86.485,146.87 L86.375,146.77 L86.266,146.66 C85.105,145.5,84.52,144.09,84.52,142.46 C84.52,140.82,85.105,139.41,86.266,138.27 C86.805,137.73,87.441,137.31,88.148,137 C88.863,136.69,89.73,136.54,90.727,136.54 C91.734,136.54,92.742,136.85,93.711,137.48 C94.68,138.1,95.418,138.97,95.898,140.05 L96.074,140.45 H93.527 L93.441,140.34 C93.09,139.86,92.648,139.49,92.125,139.23 C91.598,138.96,91.043,138.82,90.465,138.82 C89.613,138.82,88.828,139.11,88.133,139.67 C87.535,140.16,87.148,140.74,86.953,141.46 H96.414 V142.66 C96.414,144.22,95.809,145.59,94.613,146.73 C93.445,147.84,92.047,148.41,90.465,148.41 Z " stroke="#333333" stroke-width="0" fill="#333333" fill-rule="nonzero" />
<polygon points="102.32,152.32 100.03,152.32 100.03,148.11 97.32,148.11 97.32,145.94 100.03,145.94 100.03,136.71 102.32,136.71 102.32,145.94 105.01,145.94 105.01,148.11 102.32,148.11 " stroke="#333333" stroke-width="0" fill="#333333" fill-rule="nonzero" />
<polygon points="106.78,136.71 109.07,136.71 109.07,155.75 106.78,155.75 " stroke="#333333" stroke-width="0" fill="#333333" fill-rule="nonzero" />
<polygon points="119.23,148.11 116.31,141.25 113.02,148.11 110.42,148.11 115.09,138.76 111.32,130.55 114.04,130.55 121.78,148.11 " stroke="#333333" stroke-width="0" fill="#333333" fill-rule="nonzero" />
<path d="M44.254,129.95 L44.25,129.79 L44.238,129.63 L44.218,129.47 L44.191,129.32 L44.156,129.17 L44.114,129.02 L44.065,128.88 L44.009,128.74 L43.947,128.6 L43.878,128.46 L43.803,128.33 L43.722,128.21 L43.635,128.08 L43.543,127.97 L43.445,127.85 L43.342,127.74 L43.234,127.64 L43.121,127.54 L43.003,127.45 L42.881,127.36 L42.755,127.28 L42.624,127.21 L42.49,127.14 L42.352,127.08 L42.211,127.02 L42.066,126.97 L41.918,126.93 L41.768,126.9 L41.615,126.87 L41.459,126.85 L41.301,126.84 L41.141,126.83 C39.418,126.83,38.023,128.23,38.023,129.95 C38.023,131.67,39.418,133.06,41.141,133.06 C42.859,133.06,44.254,131.67,44.254,129.95 Z " stroke="#7fff00" stroke-width="0" fill="#7fff00" fill-rule="nonzero" />
<path d="M44.254,156.35 L44.25,156.19 L44.238,156.03 L44.218,155.87 L44.191,155.72 L44.156,155.57 L44.114,155.42 L44.065,155.28 L44.009,155.13 L43.947,155 L43.878,154.86 L43.803,154.73 L43.722,154.6 L43.635,154.48 L43.543,154.36 L43.445,154.25 L43.342,154.14 L43.234,154.04 L43.121,153.94 L43.003,153.85 L42.881,153.76 L42.755,153.68 L42.624,153.61 L42.49,153.54 L42.352,153.47 L42.211,153.42 L42.066,153.37 L41.918,153.33 L41.768,153.29 L41.615,153.27 L41.459,153.25 L41.301,153.23 L41.141,153.23 C39.418,153.23,38.023,154.62,38.023,156.35 C38.023,158.07,39.418,159.46,41.141,159.46 C42.859,159.46,44.254,158.07,44.254,156.35 Z " stroke="#7fff00" stroke-width="0" fill="#7fff00" fill-rule="nonzero" />
<path d="M23.07,135.14 L22.91,135.15 L22.751,135.16 L22.595,135.18 L22.442,135.2 L22.291,135.24 L22.143,135.28 L21.998,135.33 L21.857,135.39 L21.718,135.45 L21.584,135.52 L21.453,135.59 L21.327,135.67 L21.205,135.76 L21.087,135.85 L20.974,135.95 L20.866,136.05 L20.763,136.16 L20.665,136.27 L20.572,136.39 L20.485,136.51 L20.404,136.64 L20.329,136.77 L20.26,136.9 L20.198,137.04 L20.142,137.18 L20.093,137.33 L20.051,137.48 L20.016,137.63 L19.989,137.78 L19.969,137.94 L19.957,138.09 L19.953,138.25 C19.953,139.01,20.23,139.69,20.68,140.23 L20.664,140.25 L20.824,140.41 L20.918,140.5 L38.695,158.28 C38.273,157.75,38.023,157.08,38.023,156.35 C38.023,154.62,39.418,153.23,41.141,153.23 C41.961,153.23,42.707,153.55,43.262,154.07 H43.266 L25.375,136.18 L25.148,135.95 L25.055,135.85 L25.043,135.86 C24.504,135.42,23.824,135.14,23.07,135.14 Z " stroke="#bfff7f" stroke-width="0" fill="#bfff7f" fill-rule="nonzero" />
<path d="M41.141,153.23 L40.98,153.23 L40.822,153.25 L40.666,153.27 L40.512,153.29 L40.361,153.33 L40.213,153.37 L40.068,153.42 L39.927,153.47 L39.789,153.54 L39.654,153.61 L39.524,153.68 L39.397,153.76 L39.275,153.85 L39.157,153.94 L39.044,154.04 L38.936,154.14 L38.833,154.25 L38.735,154.36 L38.642,154.48 L38.555,154.6 L38.474,154.73 L38.399,154.86 L38.331,155 L38.268,155.13 L38.212,155.28 L38.163,155.42 L38.121,155.57 L38.087,155.72 L38.059,155.87 L38.039,156.03 L38.027,156.19 L38.023,156.35 C38.023,157.08,38.273,157.75,38.695,158.28 L38.875,158.46 L43.262,154.07 C42.707,153.55,41.961,153.23,41.141,153.23 Z " stroke="#7fff00" stroke-width="0" fill="#7fff00" fill-rule="nonzero" />
<path d="M30.945,129.82 L30.785,129.82 L30.626,129.83 L30.47,129.85 L30.317,129.88 L30.166,129.91 L30.018,129.96 L29.873,130.01 L29.732,130.06 L29.593,130.12 L29.459,130.19 L29.328,130.27 L29.202,130.35 L29.08,130.43 L28.962,130.53 L28.849,130.63 L28.741,130.73 L28.638,130.84 L28.54,130.95 L28.447,131.07 L28.36,131.19 L28.279,131.32 L28.204,131.45 L28.135,131.58 L28.073,131.72 L28.017,131.86 L27.968,132 L27.926,132.15 L27.891,132.3 L27.864,132.46 L27.844,132.61 L27.832,132.77 L27.828,132.93 C27.828,133.7,28.117,134.39,28.574,134.93 L28.562,134.95 L28.699,135.08 L28.793,135.18 L38.875,145.26 L43.266,140.87 L33.246,130.85 L33.023,130.62 L32.953,130.55 L32.945,130.56 C32.402,130.1,31.711,129.82,30.945,129.82 Z " stroke="#bfff7f" stroke-width="0" fill="#bfff7f" fill-rule="nonzero" />
<path d="M44.254,143.15 L44.25,142.99 L44.238,142.83 L44.218,142.67 L44.191,142.52 L44.156,142.37 L44.114,142.22 L44.065,142.08 L44.009,141.93 L43.947,141.8 L43.878,141.66 L43.803,141.53 L43.722,141.41 L43.635,141.28 L43.543,141.17 L43.445,141.05 L43.342,140.94 L43.234,140.84 L43.121,140.74 L43.003,140.65 L42.881,140.56 L42.755,140.48 L42.624,140.41 L42.49,140.34 L42.352,140.28 L42.211,140.22 L42.066,140.17 L41.918,140.13 L41.768,140.09 L41.615,140.07 L41.459,140.05 L41.301,140.04 L41.141,140.03 C39.418,140.03,38.023,141.43,38.023,143.15 C38.023,144.87,39.418,146.26,41.141,146.26 C42.859,146.26,44.254,144.87,44.254,143.15 Z " stroke="#7fff00" stroke-width="0" fill="#7fff00" fill-rule="nonzero" />
<path d="M134.71,21.898 H6.707 C5.1484,21.898,3.875,23.176,3.875,24.734 V95.398 C3.875,96.957,5.1484,98.234,6.707,98.234 H134.71 C136.27,98.234,137.54,96.957,137.54,95.398 V24.734 C137.54,23.176,136.27,21.898,134.71,21.898 Z " stroke-width="0" fill="black" fill-rule="nonzero" />
<path d="M57.98,62.984 L57.887,62.983 L57.794,62.98 L57.702,62.975 L57.611,62.968 L57.522,62.958 L57.433,62.947 L57.345,62.933 L57.259,62.917 L57.173,62.9 L57.089,62.88 L57.005,62.857 L56.923,62.833 L56.841,62.807 L56.761,62.778 L56.681,62.748 L56.603,62.715 L56.525,62.68 L56.448,62.643 L56.372,62.604 L56.297,62.562 L56.223,62.518 L56.15,62.473 L56.078,62.425 L56.006,62.375 L55.936,62.322 L55.866,62.268 L55.797,62.211 L55.729,62.152 L55.662,62.091 L55.595,62.028 L55.53,61.962 L55.465,61.895 C54.781,61.156,54.445,60.316,54.445,59.328 C54.445,58.34,54.781,57.5,55.465,56.762 C56.152,56.027,56.973,55.672,57.98,55.672 C58.988,55.672,59.809,56.027,60.496,56.762 C61.18,57.5,61.516,58.34,61.516,59.328 C61.516,60.316,61.18,61.156,60.496,61.895 C59.809,62.629,58.988,62.984,57.98,62.984 Z " stroke="white" stroke-width="0" fill="white" fill-rule="nonzero" />
<path d="M61.516,47.469 V54.996 C60.473,53.926,59.191,53.379,57.711,53.379 C56.137,53.379,54.793,53.992,53.719,55.199 C52.68,56.359,52.156,57.75,52.156,59.328 C52.156,60.906,52.68,62.293,53.719,63.457 C54.793,64.664,56.137,65.277,57.711,65.277 C59.195,65.277,60.473,64.73,61.516,63.656 V65.031 H63.805 V47.469 Z " stroke="white" stroke-width="0" fill="white" fill-rule="nonzero" />
<path d="M60.703,62.086 L60.634,62.159 L60.563,62.229 L60.492,62.297 L60.42,62.363 L60.346,62.427 L60.272,62.488 L60.196,62.547 L60.12,62.604 L60.042,62.658 L59.963,62.71 L59.884,62.76 L59.803,62.807 L59.722,62.852 L59.639,62.895 L59.555,62.935 L59.471,62.974 L59.385,63.009 L59.298,63.043 L59.211,63.074 L59.122,63.103 L59.032,63.13 L58.942,63.154 L58.85,63.176 L58.757,63.196 L58.664,63.213 L58.569,63.228 L58.474,63.241 L58.377,63.251 L58.279,63.259 L58.181,63.265 L58.081,63.268 L57.98,63.27 C56.898,63.27,55.992,62.875,55.258,62.086 C54.527,61.301,54.164,60.383,54.164,59.328 C54.164,58.273,54.527,57.352,55.258,56.57 C55.992,55.781,56.898,55.387,57.98,55.387 C59.059,55.387,59.969,55.781,60.703,56.57 C61.434,57.352,61.797,58.273,61.797,59.328 C61.797,60.383,61.434,61.301,60.703,62.086 Z " stroke="white" stroke-width="0" fill="white" fill-rule="nonzero" />
<path d="M61.797,47.754 V55.762 C61.699,55.633,61.598,55.508,61.488,55.387 C60.465,54.238,59.207,53.664,57.711,53.664 C56.211,53.664,54.953,54.238,53.93,55.387 C52.934,56.504,52.438,57.816,52.438,59.328 C52.438,60.84,52.934,62.152,53.93,63.27 C54.953,64.418,56.211,64.992,57.711,64.992 C59.207,64.992,60.465,64.418,61.488,63.27 C61.598,63.145,61.699,63.023,61.797,62.895 V64.746 H63.52 V47.754 Z " stroke="white" stroke-width="0" fill="white" fill-rule="nonzero" />
<path d="M71.078,53.402 L70.957,53.404 L70.838,53.407 L70.721,53.414 L70.604,53.423 L70.49,53.435 L70.377,53.449 L70.266,53.465 L70.156,53.485 L70.048,53.507 L69.942,53.531 L69.837,53.558 L69.734,53.587 L69.633,53.619 L69.533,53.654 L69.434,53.691 L69.338,53.73 L69.243,53.773 L69.15,53.817 L69.058,53.864 L68.968,53.914 L68.88,53.966 L68.793,54.021 L68.708,54.078 L68.625,54.137 L68.543,54.199 L68.463,54.264 L68.385,54.331 L68.309,54.4 L68.234,54.472 L68.161,54.547 L68.089,54.624 L68.02,54.703 C67.297,55.555,66.93,56.652,66.93,57.973 V65.031 H69.219 V57.973 C69.219,57.324,69.367,56.77,69.656,56.316 C69.922,55.898,70.363,55.695,71.004,55.695 C72.258,55.695,73.117,56.07,73.625,56.84 C74.148,57.637,74.414,58.773,74.414,60.215 V65.031 H76.707 V53.625 H74.414 V54.875 C73.582,53.898,72.465,53.402,71.078,53.402 Z " stroke="white" stroke-width="0" fill="white" fill-rule="nonzero" />
<path d="M71.078,53.688 L70.965,53.689 L70.853,53.692 L70.743,53.698 L70.635,53.706 L70.528,53.717 L70.423,53.73 L70.319,53.745 L70.217,53.763 L70.116,53.783 L70.017,53.805 L69.92,53.83 L69.824,53.857 L69.729,53.886 L69.637,53.918 L69.545,53.952 L69.456,53.989 L69.367,54.028 L69.281,54.069 L69.196,54.112 L69.113,54.158 L69.031,54.206 L68.95,54.257 L68.872,54.31 L68.795,54.365 L68.719,54.422 L68.645,54.482 L68.573,54.544 L68.502,54.609 L68.433,54.676 L68.365,54.745 L68.299,54.817 L68.234,54.891 C67.551,55.688,67.211,56.719,67.211,57.973 V64.746 H68.938 V57.973 C68.938,57.266,69.098,56.664,69.414,56.164 C69.734,55.66,70.266,55.41,71.004,55.41 C72.348,55.41,73.301,55.836,73.859,56.684 C74.418,57.531,74.699,58.707,74.699,60.215 V64.746 H76.422 V53.91 H74.699 V55.766 C73.887,54.383,72.68,53.688,71.078,53.688 Z " stroke="white" stroke-width="0" fill="white" fill-rule="nonzero" />
<path d="M80.719,66.332 L80.683,66.332 L80.648,66.334 L80.613,66.336 L80.578,66.338 L80.543,66.342 L80.509,66.346 L80.475,66.352 L80.442,66.358 L80.409,66.364 L80.376,66.372 L80.344,66.38 L80.312,66.389 L80.28,66.399 L80.248,66.41 L80.217,66.422 L80.187,66.434 L80.156,66.447 L80.126,66.461 L80.096,66.476 L80.067,66.491 L80.038,66.508 L80.009,66.525 L79.981,66.542 L79.953,66.561 L79.925,66.581 L79.898,66.601 L79.871,66.622 L79.845,66.643 L79.819,66.666 L79.793,66.689 L79.767,66.713 L79.742,66.738 C79.473,67.008,79.336,67.336,79.336,67.715 C79.336,68.094,79.473,68.422,79.742,68.691 C80.008,68.957,80.336,69.094,80.719,69.094 C81.098,69.094,81.426,68.957,81.691,68.691 C81.961,68.422,82.098,68.094,82.098,67.715 C82.098,67.336,81.961,67.008,81.695,66.738 C81.426,66.469,81.098,66.332,80.719,66.332 Z " stroke="white" stroke-width="0" fill="white" fill-rule="nonzero" />
<polygon points="79.586,53.625 81.875,53.625 81.875,65.031 79.586,65.031 " stroke="white" stroke-width="0" fill="white" fill-rule="nonzero" />
<polygon points="79.867,53.91 81.59,53.91 81.59,64.746 79.867,64.746 " stroke="white" stroke-width="0" fill="white" fill-rule="nonzero" />
<path d="M81.812,67.715 L81.812,67.686 L81.811,67.658 L81.81,67.63 L81.808,67.603 L81.805,67.575 L81.801,67.548 L81.797,67.522 L81.793,67.495 L81.787,67.469 L81.781,67.443 L81.775,67.417 L81.768,67.392 L81.76,67.366 L81.752,67.342 L81.743,67.317 L81.733,67.292 L81.723,67.268 L81.712,67.244 L81.7,67.221 L81.688,67.198 L81.675,67.174 L81.662,67.152 L81.648,67.129 L81.633,67.107 L81.618,67.085 L81.602,67.063 L81.585,67.041 L81.568,67.02 L81.55,66.999 L81.531,66.978 L81.512,66.958 L81.492,66.938 C81.277,66.723,81.02,66.617,80.719,66.617 C80.414,66.617,80.156,66.723,79.941,66.938 C79.727,67.152,79.621,67.41,79.621,67.715 C79.621,68.016,79.727,68.277,79.941,68.488 C80.156,68.703,80.414,68.809,80.719,68.809 C81.02,68.809,81.277,68.703,81.492,68.488 C81.707,68.277,81.812,68.016,81.812,67.715 Z " stroke="white" stroke-width="0" fill="white" fill-rule="nonzero" />
<path d="M93.785,60.426 L93.742,60.556 L93.694,60.685 L93.642,60.81 L93.586,60.933 L93.526,61.054 L93.461,61.172 L93.391,61.287 L93.318,61.4 L93.24,61.511 L93.158,61.619 L93.072,61.724 L92.982,61.827 L92.887,61.927 L92.788,62.024 L92.685,62.119 L92.578,62.211 C91.922,62.758,91.156,63.035,90.309,63.035 C88.996,63.035,87.984,62.453,87.223,61.258 C87.059,61,86.93,60.723,86.836,60.426 Z " stroke="white" stroke-width="0" fill="white" fill-rule="nonzero" />
<path d="M90.566,53.453 L90.382,53.455 L90.2,53.46 L90.022,53.47 L89.846,53.482 L89.674,53.499 L89.504,53.519 L89.338,53.543 L89.175,53.57 L89.016,53.601 L88.859,53.636 L88.706,53.675 L88.556,53.717 L88.41,53.763 L88.267,53.812 L88.128,53.865 L87.992,53.922 C87.281,54.227,86.648,54.652,86.109,55.184 C84.949,56.324,84.359,57.734,84.359,59.379 C84.359,61.008,84.949,62.422,86.105,63.578 C87.266,64.738,88.68,65.324,90.309,65.324 C91.891,65.324,93.285,64.762,94.457,63.645 C95.652,62.508,96.258,61.141,96.258,59.574 V58.379 H86.797 C86.988,57.664,87.375,57.078,87.973,56.594 C88.668,56.031,89.453,55.746,90.309,55.746 C90.883,55.746,91.441,55.879,91.965,56.145 C92.488,56.41,92.934,56.785,93.281,57.254 L93.367,57.371 H95.918 L95.738,56.973 C95.258,55.891,94.523,55.023,93.555,54.398 C92.582,53.773,91.578,53.453,90.566,53.453 Z " stroke="white" stroke-width="0" fill="white" fill-rule="nonzero" />
<path d="M92.758,62.43 L92.623,62.537 L92.486,62.638 L92.347,62.732 L92.205,62.819 L92.06,62.898 L91.914,62.971 L91.764,63.037 L91.612,63.096 L91.458,63.148 L91.301,63.192 L91.142,63.23 L90.98,63.261 L90.816,63.285 L90.649,63.303 L90.48,63.313 L90.309,63.316 C88.902,63.316,87.797,62.68,86.984,61.41 C86.738,61.023,86.566,60.602,86.465,60.141 H94.148 C93.953,61.062,93.488,61.824,92.758,62.43 Z " stroke="white" stroke-width="0" fill="white" fill-rule="nonzero" />
<path d="M95.973,58.664 H86.441 C86.609,57.73,87.059,56.969,87.797,56.371 C88.547,55.766,89.383,55.461,90.309,55.461 C90.934,55.461,91.527,55.605,92.094,55.891 C92.66,56.18,93.133,56.578,93.512,57.086 H95.48 C95.02,56.051,94.328,55.234,93.398,54.637 C92.473,54.035,91.527,53.738,90.566,53.738 C89.605,53.738,88.785,53.887,88.105,54.18 C87.422,54.477,86.824,54.879,86.305,55.387 C85.199,56.477,84.645,57.809,84.645,59.379 C84.645,60.938,85.199,62.27,86.305,63.379 C87.414,64.488,88.75,65.039,90.309,65.039 C91.824,65.039,93.141,64.508,94.262,63.441 C95.402,62.355,95.973,61.066,95.973,59.574 Z " stroke="white" stroke-width="0" fill="white" fill-rule="nonzero" />
<polygon points="99.871,53.625 99.871,62.859 97.164,62.859 97.164,65.031 99.871,65.031 99.871,69.242 102.16,69.242 102.16,65.031 104.85,65.031 104.85,62.859 102.16,62.859 102.16,53.625 " stroke="white" stroke-width="0" fill="white" fill-rule="nonzero" />
<polygon points="97.445,64.746 100.16,64.746 100.16,68.957 101.88,68.957 101.88,64.746 104.57,64.746 104.57,63.145 101.88,63.145 101.88,53.91 100.16,53.91 100.16,63.145 97.445,63.145 " stroke="white" stroke-width="0" fill="white" fill-rule="nonzero" />
<polygon points="106.62,53.625 108.91,53.625 108.91,72.664 106.62,72.664 " stroke="white" stroke-width="0" fill="white" fill-rule="nonzero" />
<polygon points="106.9,53.91 108.63,53.91 108.63,72.379 106.9,72.379 " stroke="white" stroke-width="0" fill="white" fill-rule="nonzero" />
<polygon points="111.16,47.469 114.93,55.676 110.26,65.031 112.87,65.031 116.14,58.168 119.07,65.031 121.62,65.031 113.88,47.469 " stroke="white" stroke-width="0" fill="white" fill-rule="nonzero" />
<polygon points="111.61,47.754 115.25,55.684 110.72,64.746 112.69,64.746 116.16,57.48 119.26,64.746 121.18,64.746 113.7,47.754 " stroke="white" stroke-width="0" fill="white" fill-rule="nonzero" />
<path d="M44.098,46.867 L44.094,46.707 L44.082,46.549 L44.062,46.393 L44.034,46.24 L44,46.089 L43.958,45.942 L43.909,45.797 L43.853,45.656 L43.79,45.518 L43.722,45.383 L43.647,45.253 L43.566,45.127 L43.479,45.005 L43.386,44.887 L43.288,44.774 L43.185,44.666 L43.077,44.563 L42.964,44.465 L42.846,44.373 L42.724,44.286 L42.597,44.205 L42.467,44.13 L42.332,44.061 L42.194,43.999 L42.053,43.943 L41.908,43.894 L41.76,43.852 L41.609,43.817 L41.455,43.79 L41.299,43.77 L41.141,43.758 L40.98,43.754 C39.262,43.754,37.867,45.148,37.867,46.867 C37.867,48.59,39.262,49.984,40.98,49.984 C42.703,49.984,44.098,48.59,44.098,46.867 Z " stroke="#7fff00" stroke-width="0" fill="#7fff00" fill-rule="nonzero" />
<path d="M44.098,73.266 L44.094,73.105 L44.082,72.947 L44.062,72.792 L44.034,72.638 L44,72.488 L43.958,72.34 L43.909,72.195 L43.853,72.053 L43.79,71.915 L43.722,71.781 L43.647,71.65 L43.566,71.524 L43.479,71.402 L43.386,71.284 L43.288,71.171 L43.185,71.062 L43.077,70.959 L42.964,70.861 L42.846,70.769 L42.724,70.682 L42.597,70.6 L42.467,70.525 L42.332,70.456 L42.194,70.394 L42.053,70.338 L41.908,70.289 L41.76,70.247 L41.609,70.212 L41.455,70.184 L41.299,70.165 L41.141,70.152 L40.98,70.148 C39.262,70.148,37.867,71.547,37.867,73.266 C37.867,74.984,39.262,76.383,40.98,76.383 C42.703,76.383,44.098,74.984,44.098,73.266 Z " stroke="#7fff00" stroke-width="0" fill="#7fff00" fill-rule="nonzero" />
<path d="M22.91,52.059 L22.75,52.063 L22.592,52.075 L22.436,52.094 L22.283,52.122 L22.132,52.157 L21.985,52.199 L21.84,52.248 L21.699,52.303 L21.561,52.366 L21.426,52.435 L21.296,52.51 L21.17,52.591 L21.048,52.678 L20.93,52.77 L20.817,52.868 L20.709,52.971 L20.606,53.079 L20.508,53.193 L20.416,53.31 L20.329,53.432 L20.248,53.559 L20.173,53.689 L20.104,53.824 L20.042,53.962 L19.986,54.104 L19.937,54.248 L19.895,54.396 L19.86,54.547 L19.833,54.701 L19.813,54.857 L19.801,55.015 L19.797,55.176 C19.797,55.93,20.074,56.613,20.52,57.152 L20.504,57.164 L20.664,57.324 L20.758,57.422 L38.539,75.199 C38.117,74.668,37.867,73.996,37.867,73.266 C37.867,71.547,39.262,70.148,40.98,70.148 C41.801,70.148,42.547,70.469,43.105,70.988 V70.984 L25.215,53.094 L24.992,52.871 L24.895,52.777 L24.887,52.785 C24.348,52.34,23.664,52.059,22.91,52.059 Z " stroke="#60803f" stroke-width="0" fill="#60803f" fill-rule="nonzero" />
<path d="M40.98,70.148 L40.82,70.152 L40.662,70.165 L40.507,70.184 L40.353,70.212 L40.203,70.247 L40.055,70.289 L39.91,70.338 L39.769,70.394 L39.631,70.456 L39.497,70.525 L39.366,70.6 L39.24,70.682 L39.118,70.769 L39,70.861 L38.887,70.959 L38.779,71.062 L38.676,71.171 L38.578,71.284 L38.486,71.402 L38.399,71.524 L38.318,71.65 L38.243,71.781 L38.174,71.915 L38.112,72.053 L38.056,72.195 L38.007,72.34 L37.965,72.488 L37.93,72.638 L37.903,72.792 L37.883,72.947 L37.871,73.105 L37.867,73.266 C37.867,73.996,38.117,74.668,38.539,75.199 L38.715,75.375 L43.105,70.988 C42.547,70.469,41.801,70.148,40.98,70.148 Z " stroke="#7fff00" stroke-width="0" fill="#7fff00" fill-rule="nonzero" />
<path d="M30.785,46.734 L30.625,46.738 L30.467,46.75 L30.311,46.77 L30.158,46.798 L30.007,46.832 L29.859,46.874 L29.715,46.923 L29.573,46.979 L29.435,47.042 L29.301,47.11 L29.17,47.185 L29.044,47.266 L28.921,47.353 L28.804,47.446 L28.69,47.544 L28.582,47.647 L28.479,47.755 L28.381,47.868 L28.288,47.986 L28.201,48.108 L28.12,48.235 L28.045,48.365 L27.976,48.5 L27.913,48.638 L27.857,48.779 L27.808,48.924 L27.766,49.072 L27.731,49.223 L27.704,49.377 L27.684,49.533 L27.672,49.691 L27.668,49.852 C27.668,50.617,27.957,51.309,28.418,51.852 L28.402,51.867 L28.539,52.004 L28.633,52.098 L38.715,62.18 L43.105,57.785 L33.09,47.77 L32.863,47.547 L32.793,47.477 L32.789,47.48 C32.246,47.023,31.551,46.734,30.785,46.734 Z " stroke="#60803f" stroke-width="0" fill="#60803f" fill-rule="nonzero" />
<path d="M44.098,60.066 L44.094,59.906 L44.082,59.748 L44.062,59.592 L44.034,59.439 L44,59.288 L43.958,59.141 L43.909,58.996 L43.853,58.854 L43.79,58.716 L43.722,58.582 L43.647,58.451 L43.566,58.325 L43.479,58.203 L43.386,58.085 L43.288,57.972 L43.185,57.863 L43.077,57.76 L42.964,57.662 L42.846,57.569 L42.724,57.482 L42.597,57.401 L42.467,57.326 L42.332,57.257 L42.194,57.195 L42.053,57.139 L41.908,57.09 L41.76,57.048 L41.609,57.013 L41.455,56.985 L41.299,56.965 L41.141,56.953 L40.98,56.949 C39.262,56.949,37.867,58.348,37.867,60.066 C37.867,61.785,39.262,63.184,40.98,63.184 C42.703,63.184,44.098,61.785,44.098,60.066 Z " stroke="#7fff00" stroke-width="0" fill="#7fff00" fill-rule="nonzero" />
</g>
</svg>
