<svg xmlns="http://www.w3.org/2000/svg" viewBox="0 0 442 500" role="img" aria-label="quietly mark" style="color:#78f000">
  <title>quietly</title>
  <g transform="translate(0.000000,500.000000) scale(0.100000,-0.100000)"
fill="currentColor">
<path d="M0 3444 c0 -1556 0 -1556 25 -1526 14 17 25 40 25 52 0 16 323 346
1197 1219 658 658 1238 1240 1289 1294 51 53 119 136 151 183 56 84 142 169
213 211 36 22 192 63 237 63 15 0 49 -6 77 -14 28 -8 70 -20 94 -26 23 -6 42
-15 42 -20 0 -6 18 -17 40 -26 90 -36 183 -186 200 -322 21 -162 -23 -301
-127 -407 -71 -71 -170 -151 -207 -165 -35 -13 -89 -65 -627 -605 -253 -253
-473 -473 -490 -490 -234 -229 -399 -401 -399 -417 0 -24 -35 -58 -60 -58 -12
0 -61 -42 -128 -111 -59 -61 -136 -138 -171 -172 -35 -34 -218 -216 -406 -404
-250 -250 -349 -343 -366 -343 -12 0 -33 -10 -47 -22 -21 -20 -36 -23 -129
-26 -96 -4 -107 -2 -127 17 -13 13 -45 25 -74 30 -35 5 -62 18 -87 39 -52 46
-95 98 -95 114 0 8 -11 29 -25 48 -25 34 -25 34 -25 -763 l0 -797 1546 0
c1200 0 1545 3 1542 12 -3 7 -33 19 -69 28 -89 23 -156 60 -214 117 -66 65
-85 94 -117 182 -36 97 -39 224 -7 304 61 153 108 207 250 281 84 45 98 49
178 53 104 6 181 -16 274 -79 95 -65 143 -121 176 -207 51 -137 49 -277 -8
-403 -33 -71 -108 -156 -164 -184 -18 -9 -40 -23 -50 -32 -10 -9 -48 -23 -84
-32 -37 -9 -68 -21 -71 -28 -3 -9 140 -12 617 -12 l621 0 0 2500 0 2500 -2210
0 -2210 0 0 -1556z m3340 -538 c81 -42 175 -138 211 -216 83 -181 55 -375 -78
-532 -47 -55 -157 -148 -176 -148 -5 0 -46 -36 -91 -79 -58 -57 -90 -80 -111
-83 -24 -2 -30 -9 -36 -36 -8 -42 -60 -97 -102 -108 -21 -7 -33 -18 -38 -37
-10 -37 -1005 -1033 -1041 -1042 -15 -4 -47 -26 -73 -50 -45 -41 -49 -43 -128
-48 -111 -8 -230 4 -254 25 -10 9 -30 19 -45 23 -32 8 -158 136 -158 160 0 9
-9 28 -20 42 -18 23 -20 41 -20 179 0 153 0 153 42 199 23 25 47 62 54 82 14
40 28 53 59 53 20 0 85 72 85 94 0 17 32 46 51 46 28 0 184 161 199 204 9 29
18 38 41 43 29 5 99 73 99 95 0 19 32 48 52 48 22 0 198 175 198 197 0 22 29
53 50 53 24 0 240 214 240 237 0 23 25 48 57 57 22 7 162 142 199 193 12 15
24 38 28 49 11 35 118 168 181 225 51 46 105 78 175 103 8 3 78 4 155 2 130
-2 144 -4 195 -30z"/>
</g>
</svg>
